<?xml version="1.0" standalone="no"?>
<!DOCTYPE svg PUBLIC "-//W3C//DTD SVG 20010904//EN"
 "http://www.w3.org/TR/2001/REC-SVG-20010904/DTD/svg10.dtd">
<svg version="1.0" xmlns="http://www.w3.org/2000/svg"
 width="600.000000pt" height="600.000000pt" viewBox="0 0 600.000000 600.000000"
 preserveAspectRatio="xMidYMid meet">
<metadata>
Created by potrace 1.14, written by Peter Selinger 2001-2017
</metadata>
<g transform="translate(0.000000,600.000000) scale(0.100000,-0.100000)"
fill="#000000" stroke="none">
<path d="M2321 5521 c-17 -39 -48 -66 -93 -80 -21 -7 -40 -16 -43 -21 -3 -5
16 -20 42 -35 55 -30 88 -69 85 -102 -3 -38 32 -29 46 11 8 22 27 43 50 57 60
37 69 68 27 87 -14 7 -35 32 -48 59 -27 57 -49 66 -66 24z m54 -147 l-39 -31
-36 35 c-24 24 -31 36 -22 40 8 2 25 17 40 33 l25 29 36 -37 36 -38 -40 -31z"/>
<path d="M3295 5355 c-199 -27 -369 -87 -445 -158 -40 -37 -109 -119 -162
-193 -38 -52 -108 -189 -108 -211 0 -6 -5 -24 -11 -40 -9 -25 -11 -26 -21 -10
-16 30 -51 37 -108 22 -62 -16 -76 -27 -56 -44 11 -9 25 -9 60 0 40 10 49 9
78 -8 32 -18 32 -20 34 -98 1 -86 12 -138 47 -225 33 -85 57 -124 138 -223
l27 -32 -42 -52 c-44 -55 -78 -85 -123 -108 -24 -13 -29 -12 -46 2 -35 32
-157 16 -157 -20 0 -9 -18 -12 -62 -11 -35 0 -103 -2 -151 -6 l-88 -7 -59 -58
c-87 -86 -154 -225 -166 -345 -3 -30 -9 -66 -13 -80 -13 -37 -25 -100 -76
-395 -19 -110 -42 -228 -50 -263 -8 -35 -13 -68 -9 -73 3 -5 0 -9 -5 -9 -6 0
-11 -10 -11 -23 0 -25 -22 -109 -64 -247 -14 -47 -44 -152 -66 -235 -23 -82
-45 -157 -49 -165 -4 -8 -14 -39 -21 -68 -9 -41 -18 -56 -36 -62 -25 -10 -78
-33 -174 -77 -154 -70 -452 -229 -510 -272 -100 -73 -213 -188 -268 -271 -57
-85 -104 -233 -98 -310 4 -61 32 -167 47 -175 5 -4 9 -14 9 -23 0 -28 94 -162
162 -232 153 -157 299 -254 548 -360 41 -18 89 -38 105 -46 17 -7 57 -22 90
-34 33 -12 69 -25 80 -30 11 -5 58 -20 105 -35 47 -14 99 -30 116 -35 17 -6
66 -9 110 -9 43 1 70 3 59 6 -11 2 -41 11 -66 19 -25 8 -54 16 -65 18 -60 12
-264 83 -409 142 -292 120 -379 168 -520 283 -104 85 -154 139 -216 231 l-50
75 28 3 c15 2 32 10 38 17 13 18 133 40 279 52 139 11 172 14 186 20 18 7 73
12 122 12 21 0 56 5 78 11 23 6 85 13 138 15 102 3 190 12 232 22 14 4 43 7
65 8 22 2 72 8 110 15 39 6 79 13 90 15 114 14 136 18 140 26 3 4 11 6 18 4 9
-4 165 25 269 50 68 16 111 16 162 0 45 -14 82 -17 200 -13 l144 4 -28 -35
c-41 -54 -59 -109 -48 -152 13 -50 -18 -110 -73 -144 -22 -14 -44 -38 -50 -53
-5 -15 -27 -42 -47 -61 -20 -18 -64 -59 -97 -90 -33 -31 -86 -79 -119 -106
-140 -119 -324 -312 -355 -372 -11 -22 -10 -23 23 -23 29 0 39 7 72 51 22 28
38 55 37 60 -2 5 3 9 11 9 7 0 20 10 29 23 31 46 416 422 424 414 1 -2 -2 -30
-7 -62 -5 -32 -8 -101 -7 -152 3 -92 3 -94 38 -123 47 -42 123 -80 157 -80 29
0 34 6 61 74 17 42 23 26 11 -30 -18 -79 -8 -107 55 -148 l53 -36 856 0 856 0
0 24 c0 60 12 87 41 93 16 3 29 10 29 15 0 5 5 6 10 3 16 -10 288 108 339 147
13 10 32 18 43 18 27 0 173 149 229 235 61 92 122 215 144 290 28 98 24 322
-10 472 -8 37 -109 40 -469 17 l-99 -7 29 44 c16 24 35 53 41 64 39 66 72 120
120 197 70 112 69 114 -36 196 -46 37 -115 74 -249 133 l-33 14 38 40 c77 82
141 200 149 275 2 19 6 47 9 62 5 26 -32 153 -61 209 -7 15 -34 45 -60 68 -36
32 -55 41 -85 42 -22 1 -45 2 -51 2 -105 7 -393 -46 -493 -92 -11 -5 -65 -28
-120 -51 -55 -23 -120 -54 -145 -69 -25 -15 -63 -35 -85 -45 -22 -10 -43 -20
-46 -22 -3 -2 -2 16 3 39 37 166 43 381 14 481 -8 28 -31 70 -51 94 -39 44
-87 64 -191 77 l-51 6 29 112 c36 137 65 284 72 357 20 197 20 180 -13 249
l-30 63 32 11 c62 22 237 116 311 167 85 59 116 101 172 237 48 115 63 202 59
338 -3 100 -27 263 -43 290 -3 5 -7 16 -8 25 -3 27 -35 113 -66 177 -32 66
-107 161 -142 179 -62 34 -150 59 -245 70 -25 3 -49 8 -53 10 -17 11 -281 10
-363 -1z m-386 -781 c47 -10 32 -28 -29 -36 -41 -5 -57 -3 -68 9 -13 13 -13
16 -1 24 17 10 54 11 98 3z m201 -25 c0 -5 -29 -9 -65 -9 -45 0 -65 4 -65 13
0 9 18 11 65 9 36 -2 65 -8 65 -13z m111 0 c11 -11 19 -22 17 -23 -1 -2 -22
-1 -45 2 -55 5 -59 38 -5 41 6 1 21 -8 33 -20z m-391 -69 c0 -18 -19 -11 -30
11 -11 19 -10 20 9 9 12 -6 21 -15 21 -20z m116 6 c8 -8 14 -18 14 -22 0 -20
36 -44 66 -44 24 0 43 10 71 36 37 35 39 35 92 27 l55 -8 -34 -32 c-66 -62
-206 -84 -297 -48 -37 15 -41 20 -45 56 -2 21 1 41 7 43 22 9 57 5 71 -8z
m116 -6 c-24 -23 -43 -25 -60 -8 -21 21 -13 28 35 28 l47 0 -22 -20z m713 -10
c27 -10 28 -11 20 -32 -4 -10 -21 -13 -63 -10 -57 3 -75 14 -65 38 9 23 54 25
108 4z m141 -31 c3 -6 0 -17 -8 -25 -18 -18 -68 -3 -68 21 0 18 65 22 76 4z
m105 -9 c20 -11 24 -36 9 -60 -7 -11 -14 -12 -32 -3 -13 6 -31 14 -40 17 -15
4 -16 9 -6 31 12 27 36 32 69 15z m-206 -74 c31 -33 61 -41 90 -22 21 14 28
14 56 2 l33 -14 -35 -21 c-18 -11 -50 -21 -69 -21 -46 0 -128 39 -165 80 l-30
32 49 -7 c33 -4 57 -14 71 -29z m-752 -253 c14 -13 54 -17 220 -20 l202 -5
140 -43 c77 -23 154 -46 170 -50 l30 -7 -40 -19 c-162 -79 -341 -107 -476 -74
-76 18 -199 74 -317 143 -59 35 -73 48 -70 65 5 38 101 45 141 10z m-129 -92
c19 -11 37 -17 40 -14 3 4 6 1 6 -4 0 -10 44 -36 147 -86 l42 -20 -18 -26
c-28 -41 -68 -132 -75 -175 l-7 -38 31 4 c23 4 34 0 41 -15 6 -10 8 -21 5 -25
-4 -3 5 -17 18 -31 35 -37 67 -147 52 -181 -30 -69 -89 -101 -213 -114 l-61
-6 -87 131 c-48 72 -103 165 -122 206 l-36 74 30 42 c17 23 49 80 73 127 23
47 52 104 64 128 11 23 24 42 28 42 4 0 23 -9 42 -19z m-398 -69 c6 -8 24 -45
39 -81 16 -36 47 -104 69 -151 22 -47 41 -87 41 -90 7 -23 79 -154 96 -173 6
-7 29 -41 52 -77 61 -96 114 -157 142 -164 27 -7 34 -26 10 -26 -8 0 -15 5
-15 10 0 6 -6 10 -13 10 -21 0 -59 46 -144 175 -64 95 -186 320 -188 345 -2
16 -85 179 -95 185 -22 13 -19 -2 15 -98 38 -105 56 -170 116 -407 21 -85 51
-182 66 -215 37 -81 92 -166 120 -188 22 -18 32 -47 15 -47 -12 0 -54 48 -91
103 -55 81 -92 175 -131 332 -65 260 -126 458 -160 525 -11 22 -20 44 -20 50
0 16 62 1 76 -18z m-9 -401 c-3 -144 -4 -140 56 -181 20 -14 37 -28 37 -32 0
-4 -13 -49 -30 -100 -16 -51 -30 -97 -30 -103 0 -20 44 -14 76 10 l33 25 33
-60 c18 -33 36 -60 40 -60 5 0 8 -5 8 -11 0 -5 13 -27 29 -47 30 -37 30 -38
21 -111 -6 -41 -11 -75 -12 -76 -3 -3 -101 -48 -108 -51 -72 -21 -86 -43 -48
-75 24 -21 146 -82 165 -82 17 0 23 -20 29 -105 8 -93 8 -94 17 -110 5 -7 0
-24 -12 -41 -12 -16 -21 -36 -21 -45 0 -9 -4 -16 -9 -16 -5 0 -26 -33 -46 -72
-69 -135 -86 -160 -100 -148 -7 6 -42 13 -78 17 l-65 6 -22 106 c-27 130 -27
131 -38 131 -5 0 -48 -40 -96 -89 l-88 -88 -71 24 c-39 14 -88 26 -108 27
l-36 1 14 70 c8 39 17 87 20 108 3 20 7 37 9 37 2 0 20 -18 39 -39 33 -36 55
-45 71 -28 4 4 8 37 10 73 1 36 4 68 6 70 2 2 48 10 101 18 99 15 117 20 117
37 0 9 -27 43 -62 81 -10 10 -18 21 -18 25 0 3 -7 15 -16 24 -18 20 -28 69
-14 69 6 0 26 57 36 100 1 6 12 37 25 68 16 41 -18 38 -116 -11 l-92 -45 13
61 c7 34 16 83 19 110 5 38 16 58 54 102 114 130 167 316 188 655 l7 105 33
-100 c31 -96 32 -106 30 -234z m813 268 c0 -11 5 -30 11 -41 14 -26 18 -118 8
-173 -4 -24 -11 -65 -14 -91 -11 -97 -104 -396 -144 -468 -32 -56 -71 -105
-93 -117 -36 -19 -32 1 8 39 35 35 104 155 104 182 0 6 16 61 36 123 45 136
64 216 54 222 -4 2 -13 -15 -19 -38 -7 -23 -22 -62 -34 -87 -24 -51 -124 -153
-140 -143 -7 4 -4 11 8 17 58 32 132 136 157 221 32 110 52 265 40 311 -9 33
-5 64 9 64 5 0 9 -9 9 -21z m57 -61 c-3 -7 -5 -2 -5 12 0 14 2 19 5 13 2 -7 2
-19 0 -25z m-654 -338 c44 -61 66 -100 55 -100 -6 0 -27 5 -48 11 -36 11 -37
13 -58 99 -28 111 -27 115 6 60 15 -25 35 -57 45 -70z m-143 8 c0 -4 -7 -5
-15 -2 -10 4 -15 20 -15 48 l1 41 14 -40 c8 -22 15 -43 15 -47z m770 -45 c-12
-96 -13 -99 -39 -113 -16 -8 -15 1 10 76 16 47 29 99 30 117 0 18 3 26 6 19 3
-7 0 -51 -7 -99z m-601 -102 c11 -7 10 -11 -6 -20 -22 -11 -33 -6 -33 16 0 15
18 17 39 4z m-117 -88 c-2 -7 -8 -11 -12 -8 -5 3 -13 -3 -19 -12 -16 -30 -22
-8 -8 28 32 80 30 77 37 39 3 -19 4 -41 2 -47z m252 11 c31 -29 56 -58 56 -63
0 -5 7 -12 16 -15 8 -3 13 -10 10 -15 -6 -10 26 -21 61 -21 26 0 63 36 63 61
0 9 7 22 15 29 13 11 14 10 10 -3 -4 -9 2 -21 16 -30 27 -19 22 -44 -22 -110
-46 -69 -68 -82 -116 -65 -40 14 -52 22 -114 77 -23 19 -45 31 -54 28 -10 -4
-25 13 -50 57 -19 35 -35 68 -35 75 0 6 11 16 25 21 14 5 28 16 31 24 8 21 25
11 88 -50z m297 12 c-6 -7 -22 -16 -34 -20 -18 -4 -17 -2 8 18 31 25 46 26 26
2z m139 -3 c0 -10 -7 -42 -14 -71 -8 -29 -15 -55 -15 -57 -2 -8 -5 -8 -29 -1
-17 6 -22 13 -17 24 4 10 13 37 20 61 17 55 55 85 55 44z m-48 -189 c-1 -5 -5
-26 -9 -47 -5 -32 -7 -35 -18 -21 -11 16 -15 16 -43 1 -34 -16 -52 -8 -27 13
8 7 15 17 15 22 0 6 9 23 21 39 19 28 23 29 43 16 11 -8 20 -18 18 -23z m-302
-125 c0 -5 -7 -9 -15 -9 -15 0 -20 12 -9 23 8 8 24 -1 24 -14z m235 4 c-5 -10
-13 -37 -19 -59 -7 -26 -33 -66 -70 -108 -33 -36 -66 -76 -74 -88 -9 -12 -23
-30 -31 -39 -9 -10 -22 -24 -28 -33 -7 -8 -32 -39 -57 -69 -24 -29 -49 -65
-56 -78 l-13 -24 -8 29 c-5 16 -10 60 -12 98 -3 38 -8 72 -12 76 -3 4 -23 14
-43 22 -21 8 -61 28 -91 45 l-53 29 77 37 c85 41 95 50 95 91 0 26 2 27 25 16
19 -8 31 -8 51 1 27 12 44 8 44 -11 0 -21 33 -48 60 -48 35 0 62 21 75 60 9
26 20 35 60 50 69 24 89 25 80 3z m-891 -40 c-7 -34 -22 -78 -40 -120 -19 -43
-18 -50 16 -86 16 -18 30 -35 30 -39 0 -4 14 -23 31 -43 l31 -35 -43 -1 c-72
-1 -169 -17 -169 -27 -1 -25 -13 -118 -16 -121 -7 -7 -74 70 -69 79 3 6 8 18
10 27 3 10 9 36 14 58 5 22 12 69 16 105 4 36 12 68 17 71 5 3 9 9 8 13 -1 3
1 20 5 36 6 26 19 37 83 70 43 21 78 39 80 40 1 0 0 -12 -4 -27z m936 13 c0
-3 -4 -8 -10 -11 -5 -3 -10 -1 -10 4 0 6 5 11 10 11 6 0 10 -2 10 -4z m-815
-703 c10 -47 26 -94 35 -103 10 -10 42 -20 74 -24 31 -4 56 -11 56 -16 0 -4
-15 -19 -32 -33 -18 -14 -43 -34 -54 -45 -21 -20 -33 -21 -217 -19 l-196 2 21
23 c12 12 18 22 14 22 -5 0 -3 6 3 13 8 10 0 31 -34 88 -24 41 -40 76 -34 78
6 2 36 -6 68 -18 118 -43 135 -37 234 82 17 20 34 37 37 37 3 0 14 -39 25 -87z
m806 36 c27 -12 49 -25 49 -28 0 -4 -14 -20 -31 -37 -17 -16 -37 -41 -45 -56
-30 -58 -13 -179 32 -229 45 -50 157 -21 193 49 29 58 36 129 16 176 -9 21
-14 40 -11 43 2 3 51 -5 109 -16 58 -12 115 -21 127 -21 14 0 20 -5 17 -12 -3
-7 -21 -52 -41 -100 -19 -48 -45 -105 -56 -127 -11 -22 -20 -47 -20 -55 0 -8
-9 -31 -20 -53 -26 -51 -55 -118 -80 -186 -12 -31 -24 -58 -28 -61 -4 -2 -36
2 -72 10 -36 7 -97 14 -136 14 -62 0 -73 -3 -86 -22 -12 -17 -18 -19 -34 -10
-10 6 -14 12 -7 12 23 0 62 50 74 93 32 113 1 227 -61 227 -19 0 -21 4 -16 38
3 20 8 60 12 87 11 95 52 285 61 285 2 0 27 -10 54 -21z m-1141 -219 c-10 -19
-68 -65 -75 -59 -4 5 -8 113 -6 173 l1 40 45 -68 c36 -54 43 -71 35 -86z
m1296 116 c30 -35 39 -87 24 -141 -25 -88 -77 -108 -143 -54 -32 26 -37 36
-37 72 0 41 26 113 52 141 20 24 77 14 104 -18z m-1412 -378 l6 -58 -27 0
c-16 0 -36 7 -46 15 -18 13 -18 17 6 117 14 57 29 121 34 143 7 35 8 27 14
-60 4 -55 10 -126 13 -157z m612 217 c-15 -23 -57 -36 -56 -17 1 8 63 50 69
46 2 -2 -4 -15 -13 -29z m2252 -54 c39 -15 90 -40 115 -54 60 -36 147 -105
147 -118 0 -6 -15 -34 -34 -62 -44 -68 -167 -274 -186 -312 -25 -51 -35 -56
-48 -25 -7 15 -80 96 -163 179 l-151 150 79 88 c43 49 94 109 113 135 19 26
40 48 46 48 7 0 44 -13 82 -29z m-685 -57 c52 -50 65 -69 58 -81 -11 -20 5
-81 27 -107 27 -29 74 -49 114 -48 21 1 38 0 38 -2 0 -1 -33 -36 -74 -77 -70
-72 -75 -75 -114 -71 -24 2 -54 -3 -73 -12 -38 -18 -100 -72 -116 -100 -9 -17
-12 -17 -51 3 -50 26 -70 26 -102 4 l-25 -17 18 28 c10 15 21 52 24 81 5 46 3
56 -16 71 -24 21 -26 29 -11 47 6 7 16 20 23 30 12 17 15 17 42 3 39 -21 53
-20 95 5 65 40 103 92 115 160 4 24 -1 36 -31 65 -33 33 -35 39 -23 60 7 13
13 24 13 24 1 0 32 -29 69 -66z m-1615 42 c4 -5 -72 -156 -79 -156 -14 0 -46
38 -62 75 -10 22 -22 48 -27 57 -21 37 -13 40 78 33 48 -4 88 -8 90 -9z
m-1107 -68 c-9 -25 -18 -28 -51 -15 -8 3 -28 8 -45 12 -29 6 -28 8 35 34 57
25 65 26 68 11 2 -9 -2 -28 -7 -42z m-113 -39 c20 -1 44 -3 52 -4 8 -1 21 -3
28 -4 17 -2 15 -28 -9 -99 -19 -58 -22 -60 -45 -52 -15 6 -24 6 -24 0 0 -6 -7
-10 -15 -10 -19 0 -21 -60 -3 -78 10 -10 10 -15 -2 -22 -8 -6 -20 -8 -26 -6
-6 3 -21 -9 -33 -25 -22 -30 -32 -35 -181 -96 -47 -19 -93 -42 -102 -50 -10
-9 -18 -13 -18 -8 0 8 -44 -18 -70 -41 -8 -8 -32 -28 -53 -45 -67 -56 -96
-156 -66 -223 15 -33 65 -55 112 -49 27 4 37 2 37 -9 0 -20 -30 -34 -82 -37
-27 -1 -83 -11 -125 -22 -43 -11 -91 -23 -106 -27 -15 -4 -49 -5 -76 -4 l-49
4 -11 56 c-15 77 -15 91 -7 137 13 68 40 155 48 155 4 0 8 5 8 11 0 21 80 126
141 185 135 130 134 129 349 247 19 11 91 48 160 84 97 49 126 60 128 48 2
-10 16 -16 40 -16z m1798 13 c56 -37 51 -178 -8 -227 -30 -26 -58 -33 -58 -15
0 6 8 10 18 10 10 0 28 10 39 23 34 36 18 96 -24 97 -16 0 -16 6 -1 69 12 52
15 56 34 43z m954 -27 c0 -67 -59 -145 -110 -145 -30 0 -58 16 -47 26 4 4 13
2 19 -4 20 -20 48 -14 58 14 13 33 14 31 -15 46 l-24 13 32 42 c24 31 39 42
60 43 24 0 27 -3 27 -35z m229 -38 c25 -18 64 -41 85 -51 31 -13 36 -20 25
-27 -19 -12 -69 -11 -105 1 -30 11 -64 58 -64 91 0 25 5 24 59 -14z m-2309
-118 c5 1 15 -30 24 -69 26 -109 61 -190 114 -259 38 -51 109 -117 144 -134
l31 -15 -44 -7 c-24 -3 -91 -15 -149 -27 -97 -18 -162 -29 -250 -43 -19 -3
-51 -10 -70 -15 -19 -5 -61 -11 -93 -14 l-58 -5 36 37 c20 20 46 58 58 84 14
29 30 48 42 50 24 4 47 59 28 65 -23 8 -14 28 17 40 26 10 30 16 30 47 0 25
-4 36 -15 36 -19 0 -19 8 6 121 12 52 23 106 26 121 l5 26 57 -19 c31 -11 58
-20 61 -20z m2632 -153 c76 -77 136 -141 133 -144 -2 -3 -12 1 -21 9 -10 8
-20 13 -23 13 -3 -1 -16 2 -29 7 -13 5 -34 9 -47 9 -13 0 -27 5 -31 11 -3 6
-15 9 -25 6 -10 -3 -23 1 -29 8 -6 7 -27 16 -48 20 -20 4 -41 10 -47 14 -8 6
-81 34 -122 46 -7 2 23 39 65 82 42 43 79 74 81 68 2 -5 67 -73 143 -149z
m-783 30 c16 -19 4 -80 -20 -109 l-19 -22 -20 24 c-11 13 -26 21 -35 18 -8 -4
2 18 23 48 38 57 51 65 71 41z m364 -69 c-16 -25 -110 -107 -116 -100 -4 3
-13 0 -22 -7 -21 -18 -28 -8 -14 22 13 29 113 98 141 98 13 0 16 -4 11 -13z
m227 -72 c71 -23 84 -35 40 -37 -19 0 -48 -2 -65 -3 -16 -1 -82 -5 -145 -9
l-115 -8 62 61 61 61 54 -23 c29 -13 78 -32 108 -42z m999 -51 c24 -26 40
-275 26 -399 -6 -51 -109 -266 -153 -317 -8 -10 -12 -18 -9 -18 8 0 -60 -77
-118 -135 -23 -23 -65 -54 -95 -70 -99 -53 -224 -111 -290 -135 -36 -13 -67
-26 -70 -29 -3 -3 -15 -7 -27 -8 -21 -2 -21 1 -20 80 2 80 -13 143 -37 159 -7
5 -5 28 7 70 10 35 22 81 28 103 6 22 13 47 17 55 3 8 7 22 8 30 18 89 27 127
35 136 4 6 15 48 23 95 8 46 19 98 24 114 30 88 44 144 38 153 -3 5 1 12 9 16
8 3 15 16 15 29 0 13 6 32 14 42 12 17 34 20 192 27 99 4 186 9 194 11 32 7
181 0 189 -9z m-790 -55 c-13 -10 -44 -29 -69 -41 -25 -13 -49 -29 -53 -35 -4
-7 -14 -13 -21 -13 -7 0 -41 -18 -75 -40 -34 -22 -66 -40 -71 -40 -6 0 -10 -4
-10 -10 0 -5 -8 -10 -19 -10 -10 0 -30 -11 -45 -25 -15 -14 -31 -25 -35 -25
-5 0 -12 -7 -15 -16 -3 -8 -11 -12 -16 -9 -11 7 -52 -16 -78 -42 -7 -7 -19
-13 -26 -13 -8 0 -19 -7 -26 -15 -11 -13 -18 -11 -53 18 -23 17 -59 49 -81 69
l-39 38 94 95 94 95 155 5 c85 3 164 9 175 12 11 3 38 7 60 9 55 3 138 14 143
19 2 2 11 1 19 -2 13 -5 11 -9 -8 -24z m120 -35 c-5 -15 -7 -35 -4 -45 4 -11
3 -19 -2 -19 -10 0 -37 -87 -36 -112 1 -10 -2 -18 -6 -18 -5 0 -12 -24 -15
-52 -4 -29 -11 -57 -15 -63 -5 -5 -14 -39 -20 -74 -7 -35 -19 -84 -26 -110 -7
-25 -21 -73 -31 -106 -9 -33 -18 -61 -19 -63 -1 -1 -19 14 -41 34 -21 20 -54
43 -74 52 -122 51 -260 128 -302 169 -43 42 -45 47 -30 62 9 9 34 25 55 35 20
11 37 22 37 26 0 3 25 17 55 31 30 13 55 27 55 32 0 4 7 7 15 7 8 0 15 3 15 8
0 4 15 14 33 21 17 8 52 28 77 43 25 16 68 44 95 61 28 18 76 45 108 61 31 16
57 33 57 38 0 4 7 8 15 8 12 0 13 -5 4 -26z m-1241 -2 c10 -7 -3 -32 -48 -101
-33 -50 -60 -96 -60 -101 0 -19 -20 -19 -30 0 -9 17 -7 26 11 51 17 24 20 38
15 74 -8 47 0 56 63 76 35 10 34 10 49 1z m-168 -132 c-6 -11 -20 -25 -33 -31
-12 -7 -24 -15 -27 -20 -3 -4 -34 -26 -70 -48 -155 -97 -212 -119 -338 -128
-67 -5 -76 -3 -98 18 -28 27 -28 59 0 102 26 38 36 34 20 -10 -11 -34 -11 -39
4 -51 33 -25 65 -24 169 3 118 32 205 71 308 139 39 25 71 46 73 46 1 0 -2 -9
-8 -20z"/>
<path d="M3311 3514 c0 -11 3 -14 6 -6 3 7 2 16 -1 19 -3 4 -6 -2 -5 -13z"/>
<path d="M3318 2002 c-15 -9 -29 -25 -32 -36 -6 -21 28 -76 47 -76 45 1 77 36
77 86 0 41 -46 54 -92 26z"/>
<path d="M1981 5298 c-22 -51 -51 -85 -95 -115 -23 -16 -44 -32 -48 -38 -4 -5
-8 -6 -8 -1 0 5 -9 1 -20 -9 -20 -18 -27 -37 -12 -33 13 4 93 -43 128 -74 18
-17 38 -46 45 -65 13 -40 30 -39 41 3 9 35 68 98 109 116 16 7 29 17 29 22 0
5 8 15 17 22 16 11 15 13 -12 24 -87 34 -111 60 -123 130 -9 55 -32 63 -51 18z
m39 -92 c0 -14 45 -58 73 -73 17 -9 15 -12 -18 -37 -19 -15 -47 -39 -61 -53
l-25 -25 -32 32 c-18 17 -44 38 -59 46 -34 18 -35 25 -5 44 12 8 40 33 62 56
28 29 44 38 53 31 6 -5 12 -15 12 -21z"/>
<path d="M4871 4337 c-6 -6 -11 -25 -11 -41 0 -43 -33 -93 -75 -113 -28 -13
-34 -21 -29 -37 3 -12 13 -25 21 -31 66 -43 92 -68 107 -99 9 -20 21 -36 26
-36 13 0 30 35 30 63 0 13 16 46 35 73 19 27 35 54 35 61 0 7 -13 19 -30 28
-36 19 -56 48 -64 97 -7 38 -26 54 -45 35z m79 -159 c12 -5 13 -9 2 -24 -7
-11 -21 -36 -31 -56 l-18 -38 -28 30 c-16 16 -37 32 -47 36 -26 8 -22 22 11
50 17 14 33 34 36 45 6 18 8 18 33 -9 15 -16 34 -31 42 -34z"/>
<path d="M4547 4078 c-10 -7 -19 -24 -22 -37 -10 -55 -71 -151 -95 -151 -6 0
-10 -8 -10 -19 0 -12 9 -20 29 -24 42 -9 89 -53 102 -98 16 -51 33 -49 54 5 9
24 37 63 61 87 24 24 44 48 44 55 0 6 -16 19 -35 30 -39 21 -75 70 -94 127
-14 42 -12 41 -34 25z m72 -155 c14 -13 29 -23 34 -23 16 0 5 -20 -38 -66 -25
-27 -45 -44 -45 -38 0 12 -31 46 -60 67 l-21 15 25 48 c13 27 27 58 31 68 5
18 8 16 27 -15 11 -19 32 -44 47 -56z"/>
</g>
</svg>
