<?xml version="1.0" standalone="no"?>
<!DOCTYPE svg PUBLIC "-//W3C//DTD SVG 20010904//EN"
 "http://www.w3.org/TR/2001/REC-SVG-20010904/DTD/svg10.dtd">
<svg version="1.0" xmlns="http://www.w3.org/2000/svg"
 width="250.000000pt" height="250.000000pt" viewBox="0 0 250.000000 250.000000"
 preserveAspectRatio="xMidYMid meet">
<metadata>
Created by potrace 1.14, written by Peter Selinger 2001-2017
</metadata>
<g transform="translate(0.000000,250.000000) scale(0.100000,-0.100000)"
fill="#000000" stroke="none">
<path d="M0 1250 l0 -1250 154 0 153 0 17 44 17 45 36 -40 c20 -22 38 -37 41
-34 3 3 -6 18 -19 33 -50 55 -51 57 -38 101 l12 41 23 -21 c13 -12 21 -26 18
-31 -10 -16 6 -57 27 -69 11 -6 22 -9 24 -7 9 8 -17 102 -30 112 -9 6 -17 28
-18 48 -2 21 -6 40 -9 44 -4 3 0 24 8 46 8 22 14 51 14 65 0 13 11 34 25 47
14 13 25 27 25 32 0 5 -5 2 -10 -6 -6 -10 -10 -11 -10 -3 0 19 69 92 103 110
16 8 52 22 80 30 28 8 56 22 63 31 6 8 25 16 42 17 18 1 42 2 55 3 12 1 47 18
77 37 59 38 83 38 35 -1 -23 -18 -25 -22 -8 -18 18 5 20 2 16 -23 -11 -70 -13
-73 -75 -104 -34 -17 -79 -42 -100 -56 -30 -20 -45 -24 -74 -19 -26 5 -41 3
-53 -8 -23 -21 -130 -76 -148 -76 -21 0 -42 -29 -43 -57 0 -20 4 -21 40 -17
46 6 106 38 121 65 7 13 21 19 45 19 19 0 47 9 62 20 24 17 192 80 214 80 4 0
8 -16 8 -35 0 -39 13 -45 32 -15 17 26 30 25 26 -2 -3 -19 -17 -25 -108 -48
-58 -15 -119 -34 -136 -43 -17 -9 -52 -21 -78 -28 -25 -6 -49 -15 -52 -20 -3
-5 -14 -9 -25 -9 -10 0 -19 -4 -19 -10 0 -13 10 -13 42 4 15 8 42 17 60 21 18
4 48 15 66 26 55 32 402 102 402 81 0 -5 -5 -34 -11 -64 l-11 -56 -47 -5 c-88
-8 -344 -57 -390 -73 -25 -10 -57 -27 -71 -40 -14 -12 -37 -26 -52 -29 -21 -5
-29 -15 -34 -41 -4 -21 -13 -36 -26 -40 -12 -4 -18 -13 -16 -27 3 -21 28 -37
28 -17 0 23 56 81 90 91 19 6 49 17 66 25 18 7 94 23 170 34 77 11 154 25 172
31 17 6 46 8 62 4 32 -7 35 -17 24 -72 -6 -29 -8 -30 -73 -36 -38 -3 -94 -10
-127 -16 -32 -6 -103 -18 -157 -26 -54 -8 -108 -22 -120 -31 l-22 -16 25 7
c105 28 265 54 392 62 l77 5 -6 -36 -6 -36 81 0 81 0 7 38 c4 20 10 39 14 42
5 3 131 5 282 5 307 -1 429 -16 500 -62 50 -34 70 -24 22 9 -79 55 -280 79
-593 70 l-214 -5 6 47 c4 26 9 52 13 57 3 5 123 9 277 9 308 -1 439 -14 462
-47 8 -11 34 -25 58 -32 48 -12 57 -25 57 -93 0 -21 5 -38 10 -38 6 0 10 17
10 38 0 43 6 53 26 45 9 -3 14 -20 14 -44 0 -32 3 -39 20 -39 17 0 20 7 20 50
l0 51 140 66 140 66 0 49 c0 26 -2 48 -5 48 -3 0 -49 -20 -103 -44 -53 -24
-107 -47 -119 -50 -12 -4 -34 -20 -50 -35 -22 -23 -33 -27 -50 -20 -13 4 -23
13 -23 20 0 6 -7 9 -15 6 -8 -4 -17 -2 -20 2 -3 5 -27 14 -54 21 -28 6 -59 20
-71 30 -34 29 -107 35 -419 32 l-293 -2 6 27 c4 16 11 44 17 64 l9 36 188 7
c161 5 294 0 444 -18 20 -2 47 -11 60 -20 13 -9 42 -16 70 -16 26 0 50 -5 53
-10 8 -13 72 -40 96 -40 11 0 28 -9 39 -20 10 -10 22 -16 24 -11 9 14 -31 42
-75 52 -23 5 -53 18 -66 29 -17 13 -39 19 -73 18 -32 -1 -56 4 -67 14 -21 19
-63 25 -235 36 -71 5 -131 12 -135 15 -4 4 3 28 15 53 l22 45 63 -6 c34 -3 92
-13 129 -22 38 -8 75 -12 84 -9 8 3 28 -1 44 -9 16 -9 55 -15 90 -15 40 0 74
-6 98 -19 21 -11 54 -22 74 -26 20 -4 48 -20 64 -36 15 -16 31 -29 36 -29 11
0 58 42 58 52 0 21 -80 79 -130 94 -30 9 -59 19 -65 23 -5 3 -26 7 -45 7 -19
1 -64 7 -100 14 -36 6 -89 13 -119 16 -30 2 -68 8 -85 13 -17 6 -59 15 -94 22
-34 6 -65 16 -68 21 -7 10 22 57 45 75 23 18 44 16 145 -12 106 -28 298 -65
342 -65 56 0 138 -32 199 -76 38 -29 61 -40 64 -32 2 6 -2 14 -8 16 -7 2 -28
18 -47 34 -43 38 -112 64 -189 72 -181 20 -434 79 -442 103 -2 5 8 15 21 22
21 11 37 11 103 -3 43 -9 114 -24 158 -32 44 -8 103 -21 132 -28 29 -7 54 -10
55 -5 4 12 160 -65 182 -89 11 -12 23 -22 28 -22 4 0 8 428 8 950 l0 950
-1250 0 -1250 0 0 -1250z m1111 795 c9 -5 34 -24 57 -41 41 -31 147 -62 175
-51 8 3 27 -6 43 -20 29 -24 29 -24 4 -18 -67 18 -67 18 -74 -9 -5 -20 -17
-28 -58 -41 -28 -8 -57 -15 -63 -15 -19 0 -45 -35 -57 -76 -10 -38 -48 -97
-48 -75 0 6 -4 11 -10 11 -5 0 -10 -7 -10 -15 0 -8 -4 -15 -9 -15 -5 0 -11
-13 -14 -29 -5 -24 -10 -28 -29 -24 -17 3 -19 2 -9 -5 8 -6 11 -17 8 -25 -3
-9 -1 -17 4 -19 7 -2 7 -12 0 -30 -6 -15 -6 -30 -2 -33 5 -3 7 -14 4 -25 -3
-13 0 -20 8 -21 28 -1 55 -7 109 -23 30 -8 65 -18 78 -22 16 -5 30 0 46 15 12
12 25 19 28 16 3 -3 9 6 12 20 7 26 -14 71 -27 59 -4 -4 -1 5 6 20 10 24 17
27 49 24 30 -3 35 -1 26 10 -7 7 -20 11 -30 8 -11 -2 -22 2 -25 10 -3 8 -11
14 -17 14 -14 0 -41 50 -28 51 4 0 35 1 68 3 43 1 67 8 79 20 10 9 22 15 29
13 14 -4 20 -54 9 -70 -5 -7 -8 -29 -7 -49 1 -26 -3 -38 -12 -38 -8 0 -14 -8
-15 -17 0 -10 -1 -36 -2 -58 -2 -33 -5 -39 -21 -37 -10 2 -15 -1 -12 -7 4 -5
2 -12 -4 -16 -5 -3 -10 -13 -10 -21 0 -8 5 -12 10 -9 15 9 12 -30 -4 -70 -10
-23 -20 -33 -29 -29 -10 3 -19 -5 -28 -25 -7 -16 -16 -28 -20 -25 -11 6 -30
-23 -27 -41 3 -18 -3 -23 -61 -48 -23 -10 -42 -12 -56 -7 -14 5 -27 4 -33 -2
-7 -7 -21 -5 -43 5 -19 8 -46 19 -61 25 -18 7 -28 19 -28 32 0 11 -5 20 -11
20 -5 0 -7 -5 -3 -12 4 -7 3 -8 -4 -4 -9 5 -9 12 0 25 15 25 4 53 -18 44 -13
-5 -16 -3 -11 10 5 14 2 16 -18 11 -19 -5 -26 0 -40 26 -9 18 -18 53 -20 78
-2 26 -9 79 -17 117 -12 62 -14 116 -8 195 1 14 4 19 7 13 2 -7 12 -13 22 -13
9 0 22 -5 29 -12 16 -16 81 -38 115 -38 15 0 28 -6 28 -12 1 -7 5 11 9 41 5
29 14 57 22 62 10 7 10 14 -5 42 -20 37 -60 56 -125 59 -23 1 -42 6 -42 11 0
5 -11 6 -25 3 -14 -4 -25 -2 -25 3 0 4 -3 23 -7 41 -5 26 -3 31 7 25 8 -5 43
-8 79 -8 56 1 67 4 75 22 5 12 15 21 23 21 7 0 13 6 13 13 0 8 11 27 25 43 14
16 25 34 25 39 0 7 3 7 8 0 4 -5 14 -14 23 -20z m-111 -40 c-9 -23 -50 -76
-50 -64 0 3 9 24 20 47 22 46 46 59 30 17z m-140 -210 c0 -2 -10 -10 -22 -16
-21 -11 -22 -11 -9 4 13 16 31 23 31 12z m400 -25 c-8 -5 -19 -10 -25 -10 -5
0 -3 5 5 10 8 5 20 10 25 10 6 0 3 -5 -5 -10z m-325 -21 c-4 -5 1 -19 11 -30
20 -22 12 -38 -11 -19 -8 7 -15 9 -15 4 0 -5 -4 -2 -9 5 -11 17 3 51 20 51 6
0 7 -5 4 -11z m345 -9 c0 -11 5 -20 10 -20 6 0 10 -4 10 -9 0 -9 -69 -26 -76
-19 -6 7 35 68 46 68 5 0 10 -9 10 -20z m70 -30 c0 -5 -4 -10 -10 -10 -5 0
-10 5 -10 10 0 6 5 10 10 10 6 0 10 -4 10 -10z m-242 -48 c9 -6 10 -16 3 -34
-11 -30 -5 -66 18 -91 14 -17 14 -20 -4 -30 -26 -15 -55 -17 -78 -5 -16 8 -16
11 9 38 29 30 37 64 22 93 -15 29 3 46 30 29z m216 -437 c-4 -8 -8 -15 -10
-15 -2 0 -4 7 -4 15 0 8 4 15 10 15 5 0 7 -7 4 -15z m-270 -151 c14 -21 27
-31 31 -25 3 6 16 9 28 6 21 -4 197 -17 243 -17 17 0 19 -5 16 -31 l-5 -30 31
21 c16 12 36 22 44 22 8 0 19 5 26 12 15 15 19 10 23 -27 2 -16 8 -36 13 -43
7 -9 5 -16 -5 -23 -11 -7 -10 -9 5 -9 17 0 17 -2 -5 -21 -13 -12 -43 -35 -67
-52 -27 -19 -41 -36 -37 -45 4 -10 0 -12 -10 -8 -9 3 -14 2 -11 -3 10 -15 -38
-48 -94 -66 -30 -10 -59 -21 -64 -26 -22 -20 -137 85 -121 111 3 5 1 10 -5 10
-7 0 -10 7 -7 15 4 8 2 17 -4 20 -5 4 -7 11 -3 16 3 6 -1 18 -9 27 -14 16 -57
158 -57 189 0 23 19 14 44 -23z m963 -262 c49 -27 95 -52 103 -55 13 -5 13 -6
0 -6 -8 -1 -36 10 -62 24 -26 14 -55 25 -64 25 -22 0 -104 41 -104 52 0 19 46
5 127 -40z m24 22 c65 -26 209 -95 209 -100 0 -1 -16 2 -35 7 -19 6 -39 7 -44
4 -5 -3 -12 -1 -16 4 -3 6 -38 26 -78 47 -70 35 -117 64 -106 64 3 0 34 -12
70 -26z m-1071 -78 c0 -9 -113 -86 -133 -89 -12 -2 -16 -2 -8 0 11 4 11 7 1
13 -8 5 5 14 36 26 27 10 51 21 54 24 9 12 50 33 50 26z m215 -85 c3 -5 1 -12
-5 -16 -5 -3 -10 1 -10 9 0 18 6 21 15 7z m-400 -21 c-27 -12 -43 -12 -25 0 8
5 22 9 30 9 10 0 8 -3 -5 -9z m707 -139 c18 -16 44 -39 58 -50 l25 -20 -100
-2 c-55 -1 -112 -2 -127 -3 -31 -2 -35 11 -17 62 8 24 17 32 42 35 73 9 85 7
119 -22z m-350 -21 c-7 -66 -8 -66 -68 -69 l-56 -2 21 30 c48 68 109 92 103
41z m106 -38 c4 -28 -24 -40 -45 -19 -14 13 -14 19 -3 32 18 22 44 15 48 -13z
m-60 -271 c21 -13 10 -46 -16 -49 -27 -4 -40 22 -22 43 14 17 20 18 38 6z"/>
<path d="M1257 1394 c-11 -11 -99 -19 -205 -18 -85 1 -100 -1 -91 -12 6 -8 17
-14 24 -14 6 0 22 -9 35 -20 23 -20 79 -40 112 -40 9 0 29 5 45 12 15 6 38 10
49 9 12 -1 36 11 54 28 30 27 31 31 17 45 -17 17 -30 20 -40 10z m-127 -64 c0
-16 -7 -20 -30 -20 -23 0 -30 4 -30 20 0 16 7 20 30 20 23 0 30 -4 30 -20z"/>
<path d="M1195 1291 c-3 -5 -1 -12 5 -16 5 -3 10 1 10 9 0 18 -6 21 -15 7z"/>
<path d="M1288 789 c-10 -5 -18 -14 -18 -20 0 -6 7 -6 18 -1 9 5 23 8 30 6 7
-1 8 0 2 3 -5 2 -8 9 -4 14 7 12 -6 11 -28 -2z"/>
<path d="M850 690 c-9 -6 -10 -10 -3 -10 6 0 15 5 18 10 8 12 4 12 -15 0z"/>
<path d="M845 615 c-32 -27 -112 -58 -126 -49 -19 11 -230 -68 -217 -82 3 -3
37 9 74 26 38 17 99 35 137 40 77 11 111 26 146 64 31 32 25 33 -14 1z"/>
<path d="M2474 496 c-10 -8 -16 -17 -13 -20 3 -3 14 1 25 8 10 8 16 17 13 20
-3 3 -14 -1 -25 -8z"/>
<path d="M467 202 c-9 -2 -17 -8 -17 -14 0 -13 69 -3 83 11 10 10 -22 11 -66
3z"/>
<path d="M2455 89 c-22 -10 -71 -33 -110 -51 -38 -17 -63 -33 -54 -35 19 -5
209 83 209 97 0 12 4 13 -45 -11z"/>
</g>
</svg>
